<svg width="235" height="184" viewBox="0 0 235 184" fill="none" xmlns="http://www.w3.org/2000/svg">
<path d="M102.294 87.626H91.6704C76.6725 87.626 64.5146 99.7839 64.5146 114.782V134.482C64.5146 142.208 70.7798 148.469 78.5018 148.469H135.158C142.884 148.469 149.145 142.204 149.145 134.482C149.149 108.603 128.173 87.626 102.294 87.626Z" fill="#959595"/>
<path d="M127.362 98.0737C132.206 98.0737 136.132 96.729 136.132 95.0701C136.132 93.4112 132.206 92.0664 127.362 92.0664C122.519 92.0664 118.593 93.4112 118.593 95.0701C118.593 96.729 122.519 98.0737 127.362 98.0737Z" fill="#959595"/>
<path d="M176.316 127.278C176.983 122.481 174.983 118.239 171.849 117.803C168.715 117.367 165.634 120.902 164.966 125.699C164.299 130.497 166.298 134.739 169.432 135.175C172.566 135.611 175.648 132.076 176.316 127.278Z" fill="#959595"/>
<path d="M116.891 154.64H76.4971C62.0394 154.64 50.3193 142.92 50.3193 128.462C50.3193 114.004 62.0394 102.284 76.4971 102.284H116.891C126.295 102.284 133.923 109.908 133.923 119.316V137.612C133.923 147.016 126.295 154.64 116.891 154.64Z" fill="#959595"/>
<path d="M180.291 126.489H123.467V145.694H186.421C189.801 145.694 192.539 142.956 192.539 139.576V138.741C192.539 131.973 187.055 126.489 180.291 126.489Z" fill="#959595"/>
<path d="M157.191 135.439H98.124V154.644H159.409C163.71 154.644 167.196 151.158 167.196 146.857V145.445C167.196 139.916 162.715 135.439 157.191 135.439Z" fill="#959595"/>
<path d="M155.91 97.8606L139.091 74.4206C138.264 72.8533 135.989 72.9556 135.306 74.5924L129.781 99.0392C129.188 100.459 130.272 102.01 131.807 101.941L143.461 101.417L137 99.9231C135.899 99.6694 135.211 98.5686 135.465 97.4678C135.719 96.367 136.82 95.6836 137.921 95.9332L151.785 99.1333C152.677 99.3379 153.287 100.099 153.356 100.967L154.15 100.93C155.685 100.864 156.626 99.2233 155.91 97.8606Z" fill="#959595"/>
<path d="M182.488 83.2719L160.161 96.9725C158.852 97.7746 158.823 99.6693 160.112 100.512L162.031 101.769C162.351 101.679 162.69 101.658 163.034 101.736L176.898 104.936C177.999 105.19 178.687 106.29 178.433 107.391C178.216 108.337 177.373 108.979 176.44 108.979C176.289 108.979 176.133 108.963 175.978 108.926L171.329 107.854L178.83 112.76C180.115 113.603 181.842 112.818 182.05 111.295L185.66 85.3507C185.905 83.5911 183.998 82.343 182.488 83.2719Z" fill="#959595"/>
<path d="M60.9833 146.075C58.3029 146.075 55.6798 144.761 54.1166 142.347C53.2368 140.992 32.7145 108.856 41.8728 80.825C46.3824 67.0179 56.9771 56.8529 73.3704 50.6082C77.5935 49 82.3241 51.1197 83.9323 55.3429C85.5406 59.566 83.4249 64.2966 79.1977 65.9048C67.5104 70.3612 60.394 76.8883 57.4477 85.8665C50.6915 106.434 67.6863 133.189 67.8582 133.455C70.3012 137.252 69.2127 142.314 65.4233 144.765C64.0443 145.649 62.5056 146.075 60.9833 146.075Z" fill="#959595"/>
<path d="M159.728 88.0472C145.033 84.6547 131.009 91.0468 128.402 102.329C125.799 113.611 135.6 125.503 150.295 128.9C164.99 132.292 179.014 125.9 181.621 114.618C184.228 103.336 174.423 91.4396 159.728 88.0472ZM135.469 97.4715C135.723 96.3707 136.824 95.6873 137.925 95.9369L151.789 99.137C152.89 99.3907 153.577 100.492 153.324 101.592C153.107 102.538 152.264 103.18 151.331 103.18C151.179 103.18 151.024 103.164 150.868 103.127L137.004 99.9268C135.899 99.669 135.216 98.5723 135.469 97.4715ZM160.636 115.98C160.284 116.218 159.887 116.332 159.495 116.332C158.836 116.332 158.193 116.017 157.796 115.432L155.333 111.778L151.683 114.241C150.745 114.876 149.473 114.626 148.843 113.689C148.212 112.752 148.458 111.479 149.395 110.849L156.438 106.094L161.189 113.136C161.819 114.074 161.573 115.346 160.636 115.98ZM160.579 103.266C160.833 102.165 161.934 101.482 163.034 101.731L176.899 104.932C177.999 105.185 178.687 106.286 178.433 107.387C178.216 108.332 177.373 108.975 176.44 108.975C176.289 108.975 176.133 108.958 175.978 108.921L162.114 105.721C161.013 105.468 160.325 104.367 160.579 103.266Z" fill="#959595"/>
<path d="M171.853 78.717L186.049 61.7754C187.952 59.5042 186.683 56.0217 183.766 55.5102L161.995 51.6881C159.077 51.1766 156.696 54.0166 157.711 56.7992L165.285 77.563C166.3 80.3457 169.95 80.9882 171.853 78.717Z" fill="#959595"/>
<path d="M115.315 35.6512V23.4073L108.248 35.6512H115.315ZM170.457 35.6512V23.4073L163.39 35.6512H170.457ZM140.793 23.5874C139.893 23.5874 138.993 23.9925 138.407 24.5327C136.787 25.9281 135.797 29.5743 135.797 32.3651C135.797 34.7509 136.652 38.6671 138.407 40.1976C138.993 40.7378 139.893 41.1429 140.793 41.1429C141.693 41.1429 142.594 40.7378 143.179 40.1976C144.844 38.7571 145.79 34.976 145.79 32.4102C145.79 29.7543 144.754 25.9281 143.179 24.5327C142.594 23.9925 141.693 23.5874 140.793 23.5874ZM165.125 0H117.582C98.5822 0 83.1792 15.403 83.1792 34.4031C83.1792 53.4031 98.5822 68.8061 117.582 68.8061H165.125C184.125 68.8061 199.528 53.4031 199.528 34.4031C199.528 15.403 184.125 0 165.125 0ZM126.164 41.6381H122.517V47.3098H115.315V41.6381H100.776V36.6415L112.344 17.2854H122.517V35.6512H126.164V41.6381ZM149.076 44.564C146.735 46.8597 143.719 47.985 140.793 47.985C137.867 47.985 134.851 46.8597 132.511 44.564C129.81 41.9081 128.054 37.5868 128.054 32.3201C128.054 27.0085 129.81 22.6871 132.511 20.0313C134.851 17.7356 137.867 16.6102 140.793 16.6102C143.719 16.6102 146.735 17.7356 149.076 20.0313C151.777 22.6871 153.532 27.0085 153.532 32.3201C153.532 37.5868 151.777 41.9081 149.076 44.564ZM181.306 41.6381H177.66V47.3098H170.457V41.6381H155.918V36.6415L167.487 17.2854H177.66V35.6512H181.306V41.6381Z" fill="#959595"/>
<path d="M6.17781 173.576C6.68981 173.672 7.21781 173.72 7.79381 173.72C8.36981 173.72 8.91381 173.672 9.42581 173.576V176.392H6.17781V173.576ZM7.79381 167.464C9.84181 167.464 11.2178 168.296 11.2178 169.768C11.2178 171.224 9.84181 172.072 7.79381 172.072C5.74581 172.072 4.38581 171.224 4.38581 169.768C4.38581 168.296 5.74581 167.464 7.79381 167.464ZM11.5218 176.392V172.792C12.6258 172.104 13.2978 171.048 13.2978 169.768C13.2978 167.352 10.9778 165.8 7.79381 165.8C4.62581 165.8 2.30581 167.352 2.30581 169.768C2.28981 171.048 2.96181 172.104 4.08181 172.792V176.392H1.13781V178.104H14.4818V176.392H11.5218ZM23.4406 169.016V170.712H25.7286V173.976H27.8406V165.08H25.7286V169.016H23.4406ZM24.3686 171.896C22.0166 171.272 20.9606 169.784 20.9286 168.264H23.8406V166.6H20.9286V165.032H18.8166V166.6H15.9366V168.264H18.8166C18.7846 169.912 17.7606 171.576 15.4246 172.248L16.4166 173.88C18.1286 173.384 19.2806 172.344 19.9366 171C20.6086 172.168 21.7606 173.08 23.4086 173.512L24.3686 171.896ZM22.8646 178.2C20.9126 178.2 19.9206 177.832 19.9206 177.032C19.9206 176.232 20.9126 175.848 22.8646 175.848C24.7846 175.848 25.7926 176.232 25.7926 177.032C25.7926 177.832 24.7846 178.2 22.8646 178.2ZM22.8646 174.232C19.7286 174.232 17.8086 175.256 17.8086 177.032C17.8086 178.792 19.7286 179.816 22.8646 179.816C25.9846 179.816 27.9046 178.792 27.9046 177.032C27.9046 175.256 25.9846 174.232 22.8646 174.232ZM34.1593 175.08C33.1673 175.08 32.4313 174.408 32.4313 173.288C32.4313 172.168 33.1673 171.48 34.1593 171.48C35.1513 171.48 35.8713 172.168 35.8713 173.272C35.8713 174.408 35.1513 175.08 34.1593 175.08ZM34.1593 169.768C32.0153 169.768 30.4153 171.224 30.4153 173.272C30.4153 175.352 32.0153 176.808 34.1593 176.808C36.2873 176.808 37.8713 175.352 37.8713 173.272C37.8713 171.224 36.2873 169.768 34.1593 169.768ZM35.1993 165.336H33.0873V167.256H29.8233V168.936H38.3993V167.256H35.1993V165.336ZM43.5833 170.84H41.4713V165.08H39.3593V179.816H41.4713V172.584H43.5833V170.84ZM56.5261 165.096H54.3981V175.832H56.5261V165.096ZM53.3101 171.928C50.9101 171.16 49.8861 169.272 49.8861 167.32V165.896H47.7421V167.32C47.7421 169.288 46.6861 171.352 44.2381 172.184L45.3101 173.864C47.0221 173.272 48.1741 172.072 48.8461 170.584C49.4861 171.96 50.6061 173.048 52.2381 173.608L53.3101 171.928ZM48.8301 177.88V174.808H46.7181V179.56H56.8941V177.88H48.8301ZM64.8538 168.424H65.9418V174.664C65.5898 174.696 65.2058 174.712 64.8538 174.712V168.424ZM67.8298 168.424H68.7738V166.744H62.0698V168.424H62.9658V174.76C62.5498 174.76 62.1658 174.76 61.8138 174.76L62.0378 176.472C63.8618 176.472 66.8378 176.424 69.1258 175.928L68.9818 174.408C68.6298 174.456 68.2298 174.488 67.8298 174.536V168.424ZM69.8138 170.456H68.4058V172.296H69.8138V179.144H71.7818V165.384H69.8138V170.456ZM72.7418 165.08V179.832H74.7418V165.08H72.7418ZM86.4366 165.064V179.848H88.5486V165.064H86.4366ZM80.6286 166.104C78.4046 166.104 76.7566 168.12 76.7566 171.352C76.7566 174.6 78.4046 176.632 80.6286 176.632C82.8526 176.632 84.5006 174.6 84.5006 171.352C84.5006 168.12 82.8526 166.104 80.6286 166.104ZM80.6286 168.008C81.7166 168.008 82.4686 169.176 82.4686 171.352C82.4686 173.544 81.7166 174.712 80.6286 174.712C79.5406 174.712 78.7886 173.544 78.7886 171.352C78.7886 169.176 79.5406 168.008 80.6286 168.008ZM96.4193 168.232H99.4593V166.488H91.2033V168.232H94.2753V169.048C94.2753 171.56 93.0753 174.264 90.6113 175.368L91.8113 177.048C93.5393 176.264 94.7233 174.648 95.3793 172.728C96.0353 174.504 97.2033 175.944 98.9153 176.68L100.067 175.016C97.6033 173.992 96.4193 171.448 96.4193 169.048V168.232ZM100.819 165.08V179.816H102.931V165.08H100.819ZM114.738 167.48H106.77V171H117.074V169.576H108.85V168.808H116.818V165.336H106.738V166.76H114.738V167.48ZM108.722 177.464H116.866V173.96H106.61V175.384H114.77V176.136H106.626V179.688H117.266V178.264H108.722V177.464ZM105.106 171.704V173.224H118.45V171.704H105.106ZM131.594 171.64C129.258 171.064 128.234 169.592 128.186 168.152H131.098V166.488H128.186V165.032H126.074V166.488H123.194V168.152H126.074C126.026 169.72 124.986 171.256 122.666 171.88L123.642 173.528C125.338 173.064 126.506 172.056 127.162 170.776C127.834 171.928 128.97 172.824 130.65 173.272L131.594 171.64ZM134.57 175.768V174.104H124.698V175.768H128.394C128.026 176.856 126.634 177.88 124.058 178.168L124.81 179.768C127.162 179.464 128.794 178.552 129.642 177.304C130.474 178.552 132.106 179.496 134.442 179.784L135.21 178.184C132.666 177.88 131.258 176.824 130.858 175.768H134.57ZM134.378 168.376V165.08H132.266V173.464H134.378V170.12H136.33V168.376H134.378ZM143.817 166.84C145.961 166.84 146.969 167.144 146.969 167.8C146.969 168.488 145.961 168.776 143.817 168.776C141.689 168.776 140.681 168.488 140.681 167.8C140.681 167.144 141.689 166.84 143.817 166.84ZM143.817 170.312C147.193 170.312 149.161 169.432 149.161 167.8C149.161 166.184 147.193 165.288 143.817 165.288C140.457 165.288 138.489 166.184 138.489 167.8C138.489 169.432 140.457 170.312 143.817 170.312ZM140.793 177.288H148.857V173.496H138.681V175.048H146.777V175.832H138.697V179.704H149.241V178.12H140.793V177.288ZM137.161 171.016V172.664H150.473V171.016H137.161ZM167.68 170.312C164.336 169.848 162.64 167.928 162.64 166.216V165.512H160.384V166.216C160.384 167.944 158.704 169.848 155.344 170.312L156.144 172.008C158.72 171.624 160.576 170.424 161.52 168.84C162.464 170.424 164.304 171.624 166.88 172.008L167.68 170.312ZM168.16 173.096H154.848V174.808H160.4V179.832H162.512V174.808H168.16V173.096ZM174.712 169.096C174.712 168.008 175.496 167.368 176.568 167.368C177.656 167.368 178.44 168.008 178.44 169.096C178.44 170.2 177.656 170.84 176.568 170.84C175.496 170.84 174.712 170.2 174.712 169.096ZM182.712 169.944V172.872H184.824V165.08H182.712V168.232H180.344C179.944 166.664 178.456 165.624 176.568 165.624C174.36 165.624 172.696 167.08 172.696 169.096C172.696 171.128 174.36 172.584 176.568 172.584C178.456 172.584 179.96 171.528 180.36 169.944H182.712ZM177.56 178.072H176.072V176.68H177.56V178.072ZM183.864 173.592H181.784V174.696C181.784 176.024 181.112 177.384 179.496 178.136V173.72H177.56V175.16H176.072V173.72H174.12V179.64H179.496V178.536L180.328 179.8C181.512 179.336 182.312 178.504 182.792 177.496C183.272 178.52 184.088 179.352 185.32 179.8L186.36 178.232C184.568 177.608 183.864 176.216 183.864 174.696V173.592ZM199.543 169.208C196.231 168.84 194.631 167.176 194.631 165.688V165.24H192.455V165.688C192.455 167.192 190.855 168.824 187.543 169.208L188.279 170.84C190.791 170.52 192.615 169.496 193.543 168.088C194.487 169.496 196.279 170.536 198.791 170.84L199.543 169.208ZM196.439 178.008H190.535V176.728H196.439V178.008ZM196.439 175.144H190.535V173.912H188.439V179.64H198.519V173.912H196.439V175.144ZM186.887 171.512V173.176H200.199V171.512H186.887ZM204.134 166.472H202.038V176.184H203.35C205.59 176.184 208.038 176.024 210.55 175.496L210.326 173.736C208.166 174.168 206.07 174.328 204.134 174.376V166.472ZM211.462 165.064V179.8H213.574V165.064H211.462ZM218.324 168.152H223.092V166.44H216.228V176.312H217.476C220.036 176.312 222.052 176.232 224.276 175.832L224.068 174.088C222.164 174.408 220.42 174.52 218.324 174.552V168.152ZM229.332 170.52H227.188V165.08H225.076V179.848H227.188V172.264H229.332V170.52ZM231.939 178.664C232.787 178.664 233.411 177.992 233.411 177.128C233.411 176.248 232.787 175.592 231.939 175.592C231.107 175.592 230.483 176.248 230.483 177.128C230.483 177.992 231.107 178.664 231.939 178.664Z" fill="#959595"/>
</svg>
