<svg width="80" height="34" viewBox="0 0 80 34" fill="none" xmlns="http://www.w3.org/2000/svg">
<rect width="80" height="34" fill="#FF6565"/>
<path d="M29.7168 26H24.9053L23.7881 22.9785H17.5674L16.374 26H11.6133L18.2783 8.6709H23.1914L29.7168 26ZM22.5693 19.5508L20.7031 14.0283L18.8115 19.5508H22.5693ZM52.6572 26H48.1504L46.8682 16.0215L42.6787 26H40.8887L36.8896 16.0215L35.417 26H30.9355L33.8809 8.6709H38.3242L41.8408 17.9131L45.5605 8.6709H50.042L52.6572 26ZM67.5361 20.2617C67.5361 23.1901 66.2497 25.0986 63.6768 25.9873C62.7796 26.3005 61.8148 26.457 60.7822 26.457C58.6156 26.457 56.6055 25.8011 54.752 24.4893L56.6816 20.8584C58.0358 22.0771 59.3604 22.6865 60.6553 22.6865C61.2393 22.6865 61.7344 22.5511 62.1406 22.2803C62.6146 21.9756 62.8516 21.5439 62.8516 20.9854C62.8516 20.4775 62.5892 20.0544 62.0645 19.7158C61.6751 19.4619 61.0192 19.2038 60.0967 18.9414C58.9795 18.6113 58.277 18.3828 57.9893 18.2559C57.5322 18.0612 57.1429 17.8327 56.8213 17.5703C55.8988 16.8086 55.4375 15.6576 55.4375 14.1172C55.4375 12.5091 55.9157 11.1761 56.8721 10.1182C57.9893 8.87402 59.4788 8.25195 61.3408 8.25195C63.2113 8.25195 65.0436 8.72168 66.8379 9.66113L65.0352 13.165C64.0534 12.4033 63.0632 12.0225 62.0645 12.0225C61.582 12.0225 61.1504 12.1452 60.7695 12.3906C60.3379 12.6699 60.1221 13.0423 60.1221 13.5078C60.1221 13.9648 60.4056 14.3584 60.9727 14.6885C61.2266 14.8408 61.9883 15.1032 63.2578 15.4756C64.849 15.9411 65.9831 16.6012 66.6602 17.4561C67.2441 18.1839 67.5361 19.1191 67.5361 20.2617Z" fill="white"/>
</svg>
