<svg width="134" height="34" viewBox="0 0 134 34" fill="none" xmlns="http://www.w3.org/2000/svg">
<rect width="134" height="34" fill="#FF6565"/>
<path d="M31.3135 16.377C31.3135 18.2559 31.1019 19.7878 30.6787 20.9727C30.0355 22.7754 28.9733 24.1634 27.4922 25.1367C26.0618 26.0677 24.3691 26.5332 22.4141 26.5332C19.2318 26.5332 16.79 25.4499 15.0889 23.2832C13.8024 21.6413 13.1592 19.682 13.1592 17.4053C13.1592 14.8831 13.9124 12.763 15.4189 11.0449C17.1286 9.08984 19.5153 8.1123 22.5791 8.1123C24.6273 8.1123 26.3623 8.63704 27.7842 9.68652C28.7998 10.4313 29.6673 11.5316 30.3867 12.9873L26.1084 14.752C25.7445 13.9395 25.3213 13.3301 24.8389 12.9238C24.1449 12.3483 23.3197 12.0605 22.3633 12.0605C20.4082 12.0605 19.0456 13.0719 18.2754 15.0947C17.9876 15.8395 17.8438 16.6097 17.8438 17.4053C17.8438 19.0557 18.3643 20.431 19.4053 21.5312C20.1755 22.3522 21.2038 22.7627 22.4902 22.7627C23.6328 22.7627 24.5384 22.4284 25.207 21.7598C25.6471 21.3197 25.9349 20.668 26.0703 19.8047H22.376V16.377H31.3135ZM38.6895 26H34.1826V8.6709H38.6895V26ZM54.3428 20.2617C54.3428 23.1901 53.0563 25.0986 50.4834 25.9873C49.5863 26.3005 48.6214 26.457 47.5889 26.457C45.4222 26.457 43.4121 25.8011 41.5586 24.4893L43.4883 20.8584C44.8424 22.0771 46.167 22.6865 47.4619 22.6865C48.0459 22.6865 48.541 22.5511 48.9473 22.2803C49.4212 21.9756 49.6582 21.5439 49.6582 20.9854C49.6582 20.4775 49.3958 20.0544 48.8711 19.7158C48.4818 19.4619 47.8258 19.2038 46.9033 18.9414C45.7861 18.6113 45.0837 18.3828 44.7959 18.2559C44.3389 18.0612 43.9495 17.8327 43.6279 17.5703C42.7054 16.8086 42.2441 15.6576 42.2441 14.1172C42.2441 12.5091 42.7223 11.1761 43.6787 10.1182C44.7959 8.87402 46.2855 8.25195 48.1475 8.25195C50.0179 8.25195 51.8503 8.72168 53.6445 9.66113L51.8418 13.165C50.86 12.4033 49.8698 12.0225 48.8711 12.0225C48.3887 12.0225 47.957 12.1452 47.5762 12.3906C47.1445 12.6699 46.9287 13.0423 46.9287 13.5078C46.9287 13.9648 47.2122 14.3584 47.7793 14.6885C48.0332 14.8408 48.7949 15.1032 50.0645 15.4756C51.6556 15.9411 52.7897 16.6012 53.4668 17.4561C54.0508 18.1839 54.3428 19.1191 54.3428 20.2617ZM67.457 12.4414H63.7246V26H59.2178V12.4414H55.5488V8.6709H67.457V12.4414ZM87.8584 17.3926C87.8584 19.7454 87.0755 21.8105 85.5098 23.5879C83.724 25.6107 81.3076 26.6221 78.2607 26.6221C75.2223 26.6221 72.8102 25.6107 71.0244 23.5879C69.4587 21.8105 68.6758 19.7454 68.6758 17.3926C68.6758 16.3177 68.8874 15.2174 69.3105 14.0918C69.7337 12.9577 70.3008 11.9886 71.0117 11.1846C72.7975 9.16178 75.2139 8.15039 78.2607 8.15039C81.3076 8.15039 83.724 9.16178 85.5098 11.1846C87.0755 12.9619 87.8584 15.0312 87.8584 17.3926ZM83.1738 17.3926C83.1738 16.1738 82.7845 15.1201 82.0059 14.2314C81.0072 13.0973 79.7588 12.5303 78.2607 12.5303C77.2282 12.5303 76.293 12.8223 75.4551 13.4062C74.6172 13.9818 74.0205 14.752 73.665 15.7168C73.4619 16.2669 73.3604 16.8255 73.3604 17.3926C73.3604 18.5605 73.7497 19.6058 74.5283 20.5283C75.4932 21.6709 76.7373 22.2422 78.2607 22.2422C79.7842 22.2422 81.0326 21.6751 82.0059 20.541C82.7845 19.6354 83.1738 18.5859 83.1738 17.3926ZM105.137 26H99.5254L95.2344 19.3477V26H90.7275V8.6709H97.7354C99.7835 8.6709 101.299 9.28451 102.28 10.5117C103.076 11.502 103.474 12.6657 103.474 14.0029C103.474 15.5348 103.017 16.7578 102.103 17.6719C101.519 18.2559 100.715 18.6621 99.6904 18.8906L105.137 26ZM98.7891 14.2568C98.7891 13.639 98.5648 13.1185 98.1162 12.6953C97.693 12.2975 97.0117 12.0986 96.0723 12.0986H95.2344V16.4277H96.0723C97.0202 16.4277 97.7015 16.2288 98.1162 15.8311C98.5648 15.3994 98.7891 14.8747 98.7891 14.2568ZM122.161 8.6709L115.674 17.6719V26H111.167V17.6719L104.896 8.6709H110.278L113.554 13.3936L116.702 8.6709H122.161Z" fill="white"/>
</svg>
