<svg width="128" height="34" viewBox="0 0 128 34" fill="none" xmlns="http://www.w3.org/2000/svg">
<rect width="128" height="34" fill="#FF6565"/>
<path d="M30.9795 16.377C30.9795 18.2559 30.7679 19.7878 30.3447 20.9727C29.7015 22.7754 28.6393 24.1634 27.1582 25.1367C25.7279 26.0677 24.0352 26.5332 22.0801 26.5332C18.8978 26.5332 16.4561 25.4499 14.7549 23.2832C13.4684 21.6413 12.8252 19.682 12.8252 17.4053C12.8252 14.8831 13.5785 12.763 15.085 11.0449C16.7946 9.08984 19.1813 8.1123 22.2451 8.1123C24.2933 8.1123 26.0283 8.63704 27.4502 9.68652C28.4658 10.4313 29.3333 11.5316 30.0527 12.9873L25.7744 14.752C25.4105 13.9395 24.9873 13.3301 24.5049 12.9238C23.8109 12.3483 22.9857 12.0605 22.0293 12.0605C20.0742 12.0605 18.7116 13.0719 17.9414 15.0947C17.6536 15.8395 17.5098 16.6097 17.5098 17.4053C17.5098 19.0557 18.0303 20.431 19.0713 21.5312C19.8415 22.3522 20.8698 22.7627 22.1562 22.7627C23.2988 22.7627 24.2044 22.4284 24.873 21.7598C25.3132 21.3197 25.6009 20.668 25.7363 19.8047H22.042V16.377H30.9795ZM38.3555 26H33.8486V8.6709H38.3555V26ZM54.0088 20.2617C54.0088 23.1901 52.7223 25.0986 50.1494 25.9873C49.2523 26.3005 48.2874 26.457 47.2549 26.457C45.0882 26.457 43.0781 25.8011 41.2246 24.4893L43.1543 20.8584C44.5085 22.0771 45.833 22.6865 47.1279 22.6865C47.7119 22.6865 48.207 22.5511 48.6133 22.2803C49.0872 21.9756 49.3242 21.5439 49.3242 20.9854C49.3242 20.4775 49.0618 20.0544 48.5371 19.7158C48.1478 19.4619 47.4919 19.2038 46.5693 18.9414C45.4521 18.6113 44.7497 18.3828 44.4619 18.2559C44.0049 18.0612 43.6156 17.8327 43.2939 17.5703C42.3714 16.8086 41.9102 15.6576 41.9102 14.1172C41.9102 12.5091 42.3883 11.1761 43.3447 10.1182C44.4619 8.87402 45.9515 8.25195 47.8135 8.25195C49.6839 8.25195 51.5163 8.72168 53.3105 9.66113L51.5078 13.165C50.526 12.4033 49.5358 12.0225 48.5371 12.0225C48.0547 12.0225 47.623 12.1452 47.2422 12.3906C46.8105 12.6699 46.5947 13.0423 46.5947 13.5078C46.5947 13.9648 46.8783 14.3584 47.4453 14.6885C47.6992 14.8408 48.4609 15.1032 49.7305 15.4756C51.3216 15.9411 52.4557 16.6012 53.1328 17.4561C53.7168 18.1839 54.0088 19.1191 54.0088 20.2617ZM67.123 12.4414H63.3906V26H58.8838V12.4414H55.2148V8.6709H67.123V12.4414ZM85.582 26H80.7705L79.6533 22.9785H73.4326L72.2393 26H67.4785L74.1436 8.6709H79.0566L85.582 26ZM78.4346 19.5508L76.5684 14.0283L74.6768 19.5508H78.4346ZM97.4902 26H87.5752V8.6709H92.082V22.2295H97.4902V26ZM116.013 26H110.173L104.32 18.4844V26H99.8135V8.6709H104.32V15.8184L109.817 8.6709H115.378L108.497 16.8721L116.013 26Z" fill="white"/>
</svg>
