<svg width="124" height="113" viewBox="0 0 124 113" fill="none" xmlns="http://www.w3.org/2000/svg">
<path d="M57.9057 0.99528L43.7402 14.9341C42.9083 15.7506 43.2125 17.1569 44.3052 17.5604L60.2309 23.4185C61.3268 23.8221 62.4661 22.9466 62.3637 21.7856L60.6035 1.99178C60.4855 0.65068 58.8619 0.05148 57.9057 0.99528Z" fill="black"/>
<path d="M21.5464 2.63112L21.6333 21.6426C21.4377 22.7912 22.5025 23.7536 23.6263 23.44L39.9711 18.8827C41.0949 18.5692 41.5078 17.1939 40.7472 16.3123L24.3155 1.86122C23.437 0.842919 21.773 1.30862 21.5464 2.63112Z" fill="black"/>
<path d="M41.896 40.2161C53.337 40.2161 62.6118 33.0957 62.6118 24.3122C62.6118 15.5286 53.337 8.4082 41.896 8.4082C30.455 8.4082 21.1802 15.5286 21.1802 24.3122C21.1802 33.0957 30.455 40.2161 41.896 40.2161Z" fill="black"/>
<path d="M21.5464 2.63112L21.6333 21.6426C21.4377 22.7912 22.5025 23.7536 23.6263 23.44L39.9711 18.8827C41.0949 18.5692 41.5078 17.1939 40.7472 16.3123L24.3155 1.86122C23.437 0.842919 21.773 1.30862 21.5464 2.63112Z" fill="black"/>
<path d="M57.9057 0.99528L43.7402 14.9341C42.9083 15.7506 43.2125 17.1569 44.3052 17.5604L60.2309 23.4185C61.3268 23.8221 62.4661 22.9466 62.3637 21.7856L60.6035 1.99178C60.4855 0.65068 58.8619 0.05148 57.9057 0.99528Z" fill="black"/>
<path d="M51.1719 96.713H9.3429C5.30099 96.713 0.309082 93.258 0.309082 88.999V75.2898C0.309082 44.702 19.8763 32.5078 41.8928 32.5078H54.0746C56.3346 32.5078 58.1693 34.4388 58.1693 36.823V89.344C58.1662 93.413 55.0338 96.713 51.1719 96.713Z" fill="black"/>
<path d="M50.166 96.713H46.9062V56.1107L57.5668 34.7119C65.0485 45.1893 69.4289 65.2004 69.4289 76.4136C69.4258 87.6268 60.8017 96.713 50.166 96.713Z" fill="black"/>
<path d="M27.336 42.3986C31.756 39.3916 33.9881 34.9681 32.3216 32.5185C30.6551 30.069 25.721 30.5209 21.301 33.528C16.8811 36.5351 14.6489 40.9585 16.3154 43.4081C17.982 45.8576 22.916 45.4057 27.336 42.3986Z" fill="black"/>
<path d="M91.4021 55.6204C94.0305 55.6204 96.161 53.3354 96.161 50.5168C96.161 47.6981 94.0305 45.4131 91.4021 45.4131C88.7738 45.4131 86.6431 47.6981 86.6431 50.5168C86.6431 53.3354 88.7738 55.6204 91.4021 55.6204Z" fill="black"/>
<path d="M86.3511 46.8347C86.3511 48.3217 85.2273 49.5262 83.8396 49.5262C82.4519 49.5262 81.3281 48.3217 81.3281 46.8347C81.3281 45.3476 82.8307 42.3115 84.2152 42.3115C85.606 42.3115 86.3511 45.3476 86.3511 46.8347Z" fill="black"/>
<path d="M90.9738 41.6294C90.9738 43.166 89.8127 44.4109 88.3785 44.4109C86.9443 44.4109 85.7832 43.166 85.7832 41.6294C85.7832 40.0927 87.3354 36.9541 88.7697 36.9541C90.2039 36.9541 90.9738 40.0927 90.9738 41.6294Z" fill="black"/>
<path d="M97.012 41.6294C97.012 43.166 95.8508 44.4109 94.4166 44.4109C92.9823 44.4109 91.8213 43.166 91.8213 41.6294C91.8213 40.0927 93.3735 36.9541 94.8077 36.9541C96.242 36.9541 97.012 40.0927 97.012 41.6294Z" fill="black"/>
<path d="M101.706 46.854C101.706 48.3907 100.545 49.6355 99.1101 49.6355C97.6761 49.6355 96.5151 48.3907 96.5151 46.854C96.5151 45.3173 98.0671 42.1787 99.5021 42.1787C100.936 42.1787 101.706 45.3173 101.706 46.854Z" fill="black"/>
<path d="M123.076 28.2425C122.545 27.5812 121.744 27.1963 120.897 27.1963H70.3569C69.0468 27.1963 67.9106 28.1059 67.6281 29.388L65.4736 39.1297C66.9482 42.2217 68.159 45.4286 69.1369 48.4336L72.5983 32.7874H117.417L111.028 61.6554H72.502C72.8591 63.5491 73.1602 65.4241 73.4023 67.2433H113.269C114.579 67.2433 115.716 66.3337 115.998 65.0516L123.623 30.5956C123.809 29.7699 123.607 28.9037 123.076 28.2425Z" fill="black"/>
<path d="M112.217 64.4492H72.9958C73.6974 68.8016 74.0855 72.9491 74.0855 76.4137C74.0855 79.5771 73.5111 82.6008 72.4805 85.3885H90.365C91.3585 85.3885 92.2649 85.0005 92.7058 84.3889L114.558 67.0445C115.418 65.8493 114.154 64.4492 112.217 64.4492Z" fill="black"/>
<path d="M13.5835 83.5352C13.3227 85.4041 12.6863 87.3661 12.1834 89.232C11.6619 91.088 10.9758 93.075 11.1124 94.987C11.7612 100.721 16.719 102.544 21.9406 102.509C24.8867 102.522 27.8856 102.01 30.751 101.327C34.6222 100.355 38.4313 98.998 42.0852 97.356C49.7562 94.273 54.6115 105.055 47.1827 108.743C46.807 108.911 46.4283 109.041 46.0402 109.128C40.98 110.314 35.9602 111.444 30.7479 112.04C22.2169 113.027 11.8606 112.652 5.86592 105.483C3.71145 102.994 2.54729 99.858 1.76498 96.785C0.203458 91.234 -0.532292 85.4693 1.60666 80.0521C1.68737 79.813 1.78361 79.6516 1.86743 79.4281C3.00054 76.1933 6.5458 74.4889 9.7806 75.6221C13.0154 76.7552 14.7197 80.3004 13.5835 83.5352Z" fill="black"/>
</svg>
