<svg width="736" height="107" viewBox="0 0 736 107" fill="none" xmlns="http://www.w3.org/2000/svg">
<path d="M26.742 103H0.741211V3.02441H26.742V103ZM147.592 103H121.591L73.764 41.7695V103H47.763V3.02441H73.764L121.591 64.1816V3.02441H147.592V103ZM225.888 24.7773H194.613V41.6963H223.104V63.4492H194.613V103H168.612V3.02441H225.888V24.7773ZM347.616 53.3418C347.616 66.916 343.1 78.8301 334.066 89.084C323.764 100.754 309.823 106.589 292.245 106.589C274.716 106.589 260.8 100.754 250.497 89.084C241.464 78.8301 236.947 66.916 236.947 53.3418C236.947 47.1406 238.168 40.793 240.609 34.2988C243.051 27.7559 246.322 22.165 250.424 17.5264C260.727 5.85645 274.667 0.0214844 292.245 0.0214844C309.823 0.0214844 323.764 5.85645 334.066 17.5264C343.1 27.7803 347.616 39.7188 347.616 53.3418ZM320.59 53.3418C320.59 46.3105 318.344 40.2314 313.852 35.1045C308.09 28.5615 300.888 25.29 292.245 25.29C286.288 25.29 280.893 26.9746 276.059 30.3438C271.225 33.6641 267.782 38.1074 265.731 43.6738C264.56 46.8477 263.974 50.0703 263.974 53.3418C263.974 60.0801 266.22 66.1104 270.712 71.4326C276.278 78.0244 283.456 81.3203 292.245 81.3203C301.034 81.3203 308.236 78.0488 313.852 71.5059C318.344 66.2812 320.59 60.2266 320.59 53.3418ZM423.422 24.7773H401.889V103H375.888V24.7773H354.721V3.02441H423.422V24.7773ZM491.83 103H434.921V3.02441H491.83V24.7773H460.922V41.6963H490.146V63.4492H460.922V81.2471H491.83V103ZM603.305 103H575.546L569.101 85.5684H533.212L526.327 103H498.861L537.313 3.02441H565.658L603.305 103ZM562.069 65.793L551.303 33.9326L540.39 65.793H562.069ZM735.653 103H709.652L702.255 45.4316L678.085 103H667.758L644.687 45.4316L636.19 103H610.336L627.328 3.02441H652.963L673.251 56.3447L694.711 3.02441H720.565L735.653 103Z" fill="#FF6565"/>
</svg>
