<svg width="23" height="23" viewBox="0 0 23 23" fill="none" xmlns="http://www.w3.org/2000/svg">
<path d="M10.7864 2.26457L8.31822 4.69331C8.17325 4.83557 8.22626 5.08061 8.41667 5.15093L11.1916 6.17165C11.3825 6.24197 11.5811 6.08943 11.5632 5.88712L11.2565 2.4382C11.236 2.20453 10.9531 2.10013 10.7864 2.26457Z" fill="#FF6565"/>
<path d="M4.45117 2.54977L4.46632 5.86238C4.43224 6.06252 4.61778 6.2302 4.81359 6.17557L7.66154 5.3815C7.85736 5.32686 7.9293 5.08724 7.79677 4.93361L4.93367 2.41562C4.78059 2.2382 4.49066 2.31934 4.45117 2.54977Z" fill="#FF6565"/>
<path d="M7.99678 9.09893C9.99029 9.09893 11.6064 7.85824 11.6064 6.32778C11.6064 4.79732 9.99029 3.55664 7.99678 3.55664C6.00327 3.55664 4.38721 4.79732 4.38721 6.32778C4.38721 7.85824 6.00327 9.09893 7.99678 9.09893Z" fill="#FF6565"/>
<path d="M4.45117 2.54977L4.46632 5.86238C4.43224 6.06252 4.61778 6.2302 4.81359 6.17557L7.66154 5.3815C7.85736 5.32686 7.9293 5.08724 7.79677 4.93361L4.93367 2.41562C4.78059 2.2382 4.49066 2.31934 4.45117 2.54977Z" fill="#FF6565"/>
<path d="M10.7864 2.26457L8.31822 4.69331C8.17325 4.83557 8.22626 5.08061 8.41667 5.15093L11.1916 6.17165C11.3825 6.24197 11.5811 6.08943 11.5632 5.88712L11.2565 2.4382C11.236 2.20453 10.9531 2.10013 10.7864 2.26457Z" fill="#FF6565"/>
<path d="M9.61344 18.9422H2.32506C1.62078 18.9422 0.750977 18.3402 0.750977 17.598V15.2093C0.750977 9.87962 4.16041 7.75488 7.99663 7.75488H10.1192C10.513 7.75488 10.8327 8.09134 10.8327 8.50676V17.6581C10.8321 18.3672 10.2863 18.9422 9.61344 18.9422Z" fill="#FF6565"/>
<path d="M9.43809 18.9429H8.87012V11.8682L10.7276 8.13965C12.0313 9.96526 12.7945 13.452 12.7945 15.4059C12.794 17.3597 11.2913 18.9429 9.43809 18.9429Z" fill="#FF6565"/>
<path d="M5.46019 9.47877C6.23034 8.95481 6.61927 8.18406 6.32889 7.75724C6.03851 7.33042 5.17878 7.40917 4.40864 7.93313C3.63849 8.45708 3.24956 9.22784 3.53994 9.65466C3.83031 10.0815 4.69004 10.0027 5.46019 9.47877Z" fill="#FF6565"/>
<path d="M16.6232 11.7825C17.0812 11.7825 17.4524 11.3843 17.4524 10.8932C17.4524 10.402 17.0812 10.0039 16.6232 10.0039C16.1652 10.0039 15.7939 10.402 15.7939 10.8932C15.7939 11.3843 16.1652 11.7825 16.6232 11.7825Z" fill="#FF6565"/>
<path d="M15.7429 10.252C15.7429 10.5111 15.5471 10.721 15.3053 10.721C15.0635 10.721 14.8677 10.5111 14.8677 10.252C14.8677 9.99289 15.1295 9.46387 15.3707 9.46387C15.6131 9.46387 15.7429 9.99289 15.7429 10.252Z" fill="#FF6565"/>
<path d="M16.5485 9.3449C16.5485 9.61266 16.3462 9.82957 16.0963 9.82957C15.8463 9.82957 15.644 9.61266 15.644 9.3449C15.644 9.07715 15.9145 8.53027 16.1644 8.53027C16.4143 8.53027 16.5485 9.07715 16.5485 9.3449Z" fill="#FF6565"/>
<path d="M17.6007 9.3449C17.6007 9.61266 17.3984 9.82957 17.1485 9.82957C16.8986 9.82957 16.6963 9.61266 16.6963 9.3449C16.6963 9.07715 16.9667 8.53027 17.2167 8.53027C17.4666 8.53027 17.6007 9.07715 17.6007 9.3449Z" fill="#FF6565"/>
<path d="M18.4186 10.2551C18.4186 10.5228 18.2163 10.7397 17.9664 10.7397C17.7165 10.7397 17.5142 10.5228 17.5142 10.2551C17.5142 9.9873 17.7846 9.44043 18.0345 9.44043C18.2844 9.44043 18.4186 9.9873 18.4186 10.2551Z" fill="#FF6565"/>
<path d="M22.1423 7.01237C22.0498 6.89715 21.9102 6.83008 21.7625 6.83008H12.9563C12.7281 6.83008 12.5301 6.98857 12.4809 7.21197L12.1055 8.90938C12.3624 9.44814 12.5734 10.0069 12.7438 10.5305L13.3469 7.80428H21.1562L20.043 12.8343H13.3301C13.3923 13.1643 13.4448 13.491 13.487 13.808H20.4335C20.6618 13.808 20.8597 13.6495 20.909 13.4261L22.2375 7.42239C22.2699 7.2785 22.2348 7.12759 22.1423 7.01237Z" fill="#FF6565"/>
<path d="M20.25 13.3203H13.416C13.5382 14.0787 13.6058 14.8014 13.6058 15.405C13.6058 15.9562 13.5058 16.4831 13.3262 16.9688H16.4424C16.6155 16.9688 16.7735 16.9012 16.8503 16.7947L20.6578 13.7725C20.8077 13.5643 20.5875 13.3203 20.25 13.3203Z" fill="#FF6565"/>
<path d="M3.06393 16.6459C3.0185 16.9716 2.90761 17.3134 2.81998 17.6385C2.7291 17.962 2.60956 18.3082 2.63336 18.6414C2.74641 19.6405 3.61027 19.958 4.5201 19.9521C5.03343 19.9542 5.55596 19.865 6.05523 19.746C6.72976 19.5767 7.39347 19.3403 8.03014 19.0541C9.36676 18.517 10.2128 20.3956 8.91833 21.0382C8.85288 21.0674 8.78689 21.0902 8.71927 21.1053C7.83757 21.3119 6.9629 21.5088 6.05469 21.6127C4.56824 21.7847 2.76372 21.7193 1.7192 20.4703C1.3438 20.0364 1.14096 19.4901 1.00464 18.9546C0.732561 17.9874 0.604363 16.9829 0.977058 16.039C0.991122 15.9974 1.00789 15.9693 1.0225 15.9303C1.21993 15.3667 1.83766 15.0697 2.40131 15.2671C2.96495 15.4646 3.26191 16.0823 3.06393 16.6459Z" fill="#FF6565"/>
</svg>
