<svg width="142" height="35" viewBox="0 0 142 35" fill="none" xmlns="http://www.w3.org/2000/svg">
<path d="M16.4138 3.44596L12.6578 7.14186C12.4372 7.35835 12.5179 7.73123 12.8077 7.83824L17.0304 9.39151C17.3209 9.49852 17.623 9.26639 17.5959 8.95854L17.1292 3.71018C17.0979 3.35459 16.6674 3.19572 16.4138 3.44596Z" fill="#FF6565"/>
<path d="M6.77344 3.87996L6.79649 8.92088C6.74463 9.22544 7.02696 9.48062 7.32494 9.39748L11.6588 8.18911C11.9568 8.10597 12.0662 7.74132 11.8646 7.50755L7.50768 3.67582C7.27473 3.40583 6.83353 3.5293 6.77344 3.87996Z" fill="#FF6565"/>
<path d="M12.1691 13.845C15.2027 13.845 17.6619 11.9571 17.6619 9.62809C17.6619 7.29913 15.2027 5.41113 12.1691 5.41113C9.13549 5.41113 6.67627 7.29913 6.67627 9.62809C6.67627 11.9571 9.13549 13.845 12.1691 13.845Z" fill="#FF6565"/>
<path d="M6.77344 3.87996L6.79649 8.92088C6.74463 9.22544 7.02696 9.48062 7.32494 9.39748L11.6588 8.18911C11.9568 8.10597 12.0662 7.74132 11.8646 7.50755L7.50768 3.67582C7.27473 3.40583 6.83353 3.5293 6.77344 3.87996Z" fill="#FF6565"/>
<path d="M16.4138 3.44596L12.6578 7.14186C12.4372 7.35835 12.5179 7.73123 12.8077 7.83824L17.0304 9.39151C17.3209 9.49852 17.623 9.26639 17.5959 8.95854L17.1292 3.71018C17.0979 3.35459 16.6674 3.19572 16.4138 3.44596Z" fill="#FF6565"/>
<path d="M14.6289 28.826H3.53792C2.46619 28.826 1.14258 27.9098 1.14258 26.7805V23.1455C1.14258 15.0351 6.33084 11.8018 12.1686 11.8018H15.3986C15.9978 11.8018 16.4843 12.3138 16.4843 12.9459V26.8718C16.4835 27.951 15.6529 28.826 14.6289 28.826Z" fill="#FF6565"/>
<path d="M14.3623 28.8255H13.498V18.0597L16.3247 12.3857C18.3085 15.1638 19.4699 20.4698 19.4699 23.443C19.4691 26.4162 17.1824 28.8255 14.3623 28.8255Z" fill="#FF6565"/>
<path d="M8.30864 14.424C9.48061 13.6267 10.0725 12.4538 9.63058 11.8043C9.1887 11.1548 7.88042 11.2746 6.70846 12.0719C5.53649 12.8693 4.94464 14.0422 5.38652 14.6917C5.8284 15.3412 7.13668 15.2213 8.30864 14.424Z" fill="#FF6565"/>
<path d="M25.2961 17.9301C25.993 17.9301 26.5579 17.3243 26.5579 16.5769C26.5579 15.8295 25.993 15.2236 25.2961 15.2236C24.5991 15.2236 24.0342 15.8295 24.0342 16.5769C24.0342 17.3243 24.5991 17.9301 25.2961 17.9301Z" fill="#FF6565"/>
<path d="M23.9568 15.5997C23.9568 15.994 23.6589 16.3134 23.2909 16.3134C22.923 16.3134 22.625 15.994 22.625 15.5997C22.625 15.2054 23.0234 14.4004 23.3905 14.4004C23.7593 14.4004 23.9568 15.2054 23.9568 15.5997Z" fill="#FF6565"/>
<path d="M25.1824 14.2201C25.1824 14.6276 24.8746 14.9577 24.4943 14.9577C24.114 14.9577 23.8062 14.6276 23.8062 14.2201C23.8062 13.8127 24.2177 12.9805 24.598 12.9805C24.9783 12.9805 25.1824 13.8127 25.1824 14.2201Z" fill="#FF6565"/>
<path d="M26.7835 14.2201C26.7835 14.6276 26.4757 14.9577 26.0954 14.9577C25.7151 14.9577 25.4072 14.6276 25.4072 14.2201C25.4072 13.8127 25.8188 12.9805 26.1991 12.9805C26.5794 12.9805 26.7835 13.8127 26.7835 14.2201Z" fill="#FF6565"/>
<path d="M28.0281 15.6049C28.0281 16.0123 27.7203 16.3424 27.34 16.3424C26.9597 16.3424 26.6519 16.0123 26.6519 15.6049C26.6519 15.1974 27.0634 14.3652 27.4437 14.3652C27.824 14.3652 28.0281 15.1974 28.0281 15.6049Z" fill="#FF6565"/>
<path d="M33.6943 10.67C33.5535 10.4946 33.3412 10.3926 33.1165 10.3926H19.7157C19.3683 10.3926 19.0671 10.6338 18.9922 10.9737L18.4209 13.5567C18.8119 14.3766 19.1329 15.2269 19.3922 16.0237L20.31 11.8751H32.1937L30.4997 19.5295H20.2845C20.3792 20.0316 20.459 20.5287 20.5232 21.0111H31.094C31.4414 21.0111 31.7426 20.7699 31.8175 20.43L33.8392 11.2939C33.8886 11.075 33.8351 10.8453 33.6943 10.67Z" fill="#FF6565"/>
<path d="M30.815 20.2705H20.4155C20.6015 21.4246 20.7044 22.5243 20.7044 23.4429C20.7044 24.2817 20.5521 25.0834 20.2788 25.8226H25.0209C25.2843 25.8226 25.5247 25.7197 25.6416 25.5575L31.4357 20.9587C31.6637 20.6417 31.3287 20.2705 30.815 20.2705Z" fill="#FF6565"/>
<path d="M4.66217 25.3318C4.59303 25.8273 4.42428 26.3475 4.29093 26.8422C4.15264 27.3345 3.97073 27.8613 4.00695 28.3683C4.17898 29.8887 5.49354 30.3719 6.87807 30.3628C7.65923 30.3661 8.45438 30.2303 9.21414 30.0492C10.2406 29.7916 11.2506 29.4318 12.2194 28.9964C14.2534 28.179 15.5408 31.0378 13.571 32.0157C13.4714 32.0601 13.371 32.0947 13.2681 32.1178C11.9264 32.4322 10.5954 32.7318 9.21332 32.8899C6.95133 33.1516 4.20533 33.052 2.61584 31.1514C2.04458 30.4912 1.7359 29.6599 1.52847 28.8449C1.11443 27.3732 0.919343 25.8446 1.48649 24.4082C1.50789 24.3448 1.53341 24.302 1.55563 24.2428C1.85608 23.385 2.79611 22.9331 3.65382 23.2336C4.51153 23.534 4.96344 24.4741 4.66217 25.3318Z" fill="#FF6565"/>
<path d="M46.5869 23.25H43.4668V11.2529H46.5869V23.25ZM61.0889 23.25H57.9688L52.2295 15.9023V23.25H49.1094V11.2529H52.2295L57.9688 18.5918V11.2529H61.0889V23.25ZM70.7217 13.8633H68.1377V23.25H65.0176V13.8633H62.4775V11.2529H70.7217V13.8633ZM82.0771 23.25H78.1924L75.2217 18.6445V23.25H72.1016V11.2529H76.9531C78.3711 11.2529 79.4199 11.6777 80.0996 12.5273C80.6504 13.2129 80.9258 14.0186 80.9258 14.9443C80.9258 16.0049 80.6094 16.8516 79.9766 17.4844C79.5723 17.8887 79.0156 18.1699 78.3066 18.3281L82.0771 23.25ZM77.6826 15.1201C77.6826 14.6924 77.5273 14.332 77.2168 14.0391C76.9238 13.7637 76.4521 13.626 75.8018 13.626H75.2217V16.623H75.8018C76.458 16.623 76.9297 16.4854 77.2168 16.21C77.5273 15.9111 77.6826 15.5479 77.6826 15.1201ZM96.1309 17.291C96.1309 18.9199 95.5889 20.3496 94.5049 21.5801C93.2686 22.9805 91.5957 23.6807 89.4863 23.6807C87.3828 23.6807 85.7129 22.9805 84.4766 21.5801C83.3926 20.3496 82.8506 18.9199 82.8506 17.291C82.8506 16.5469 82.9971 15.7852 83.29 15.0059C83.583 14.2207 83.9756 13.5498 84.4678 12.9932C85.7041 11.5928 87.377 10.8926 89.4863 10.8926C91.5957 10.8926 93.2686 11.5928 94.5049 12.9932C95.5889 14.2236 96.1309 15.6562 96.1309 17.291ZM92.8877 17.291C92.8877 16.4473 92.6182 15.7178 92.0791 15.1025C91.3877 14.3174 90.5234 13.9248 89.4863 13.9248C88.7715 13.9248 88.124 14.127 87.5439 14.5312C86.9639 14.9297 86.5508 15.4629 86.3047 16.1309C86.1641 16.5117 86.0938 16.8984 86.0938 17.291C86.0938 18.0996 86.3633 18.8232 86.9023 19.4619C87.5703 20.2529 88.4316 20.6484 89.4863 20.6484C90.541 20.6484 91.4053 20.2559 92.0791 19.4707C92.6182 18.8438 92.8877 18.1172 92.8877 17.291ZM108.638 17.2471C108.638 18.4951 108.26 19.6523 107.504 20.7188C106.754 21.7793 105.793 22.5146 104.621 22.9248C104 23.1416 103.367 23.25 102.723 23.25H98.1172V11.2529H102.723C103.848 11.2529 104.891 11.5664 105.852 12.1934C106.795 12.8027 107.519 13.6172 108.022 14.6367C108.433 15.4805 108.638 16.3506 108.638 17.2471ZM105.395 17.2471C105.395 16.4209 105.163 15.7002 104.7 15.085C104.085 14.2705 103.168 13.8633 101.949 13.8633H101.237V20.6396H101.949C103.174 20.6396 104.091 20.2324 104.7 19.418C105.163 18.7969 105.395 18.0732 105.395 17.2471ZM121.101 18.1699C121.101 18.8906 121.042 19.5059 120.925 20.0156C120.743 20.8066 120.31 21.5273 119.624 22.1777C118.651 23.0977 117.351 23.5576 115.722 23.5576C114.063 23.5576 112.769 23.0889 111.837 22.1514C111.345 21.6592 111.008 21.041 110.826 20.2969C110.697 19.7695 110.633 19.0605 110.633 18.1699V11.2529H113.753V17.748C113.753 18.2695 113.762 18.6592 113.779 18.917C113.838 19.7314 114.21 20.2998 114.896 20.6221C115.177 20.7568 115.487 20.8242 115.827 20.8242C116.589 20.8242 117.163 20.5576 117.55 20.0244C117.837 19.6318 117.98 18.873 117.98 17.748V11.2529H121.101V18.1699ZM132.263 22.9688C131.243 23.373 130.3 23.5752 129.433 23.5752C127.921 23.5752 126.567 23.0918 125.372 22.125C123.849 20.8887 123.087 19.2773 123.087 17.291C123.087 15.2988 123.849 13.6846 125.372 12.4482C126.567 11.4814 127.93 10.998 129.459 10.998C130.291 10.998 131.226 11.2002 132.263 11.6045V15.3398C131.97 14.9824 131.671 14.7129 131.366 14.5312C130.81 14.1973 130.212 14.0303 129.573 14.0303C128.765 14.0303 128.062 14.2734 127.464 14.7598C126.708 15.375 126.33 16.2188 126.33 17.291C126.33 18.3574 126.708 19.1982 127.464 19.8135C128.062 20.2998 128.765 20.543 129.573 20.543C130.212 20.543 130.81 20.376 131.366 20.042C131.665 19.8662 131.964 19.5967 132.263 19.2334V22.9688ZM141.069 23.25H134.24V11.2529H141.069V13.8633H137.36V15.8936H140.867V18.5039H137.36V20.6396H141.069V23.25Z" fill="#FF6565"/>
</svg>
