<svg width="124" height="26" viewBox="0 0 124 26" fill="none" xmlns="http://www.w3.org/2000/svg">
<g clip-path="url(#clip0_193_514)">
<path d="M38.377 19H35.2568V7.00293H38.377V19ZM52.8789 19H49.7588L44.0195 11.6523V19H40.8994V7.00293H44.0195L49.7588 14.3418V7.00293H52.8789V19ZM62.2744 9.61328H58.5215V11.6436H61.9404V14.2539H58.5215V19H55.4014V7.00293H62.2744V9.61328ZM76.8818 13.041C76.8818 14.6699 76.3398 16.0996 75.2559 17.3301C74.0195 18.7305 72.3467 19.4307 70.2373 19.4307C68.1338 19.4307 66.4639 18.7305 65.2275 17.3301C64.1436 16.0996 63.6016 14.6699 63.6016 13.041C63.6016 12.2969 63.748 11.5352 64.041 10.7559C64.334 9.9707 64.7266 9.2998 65.2188 8.74316C66.4551 7.34277 68.1279 6.64258 70.2373 6.64258C72.3467 6.64258 74.0195 7.34277 75.2559 8.74316C76.3398 9.97363 76.8818 11.4062 76.8818 13.041ZM73.6387 13.041C73.6387 12.1973 73.3691 11.4678 72.8301 10.8525C72.1387 10.0674 71.2744 9.6748 70.2373 9.6748C69.5225 9.6748 68.875 9.87695 68.2949 10.2812C67.7148 10.6797 67.3018 11.2129 67.0557 11.8809C66.915 12.2617 66.8447 12.6484 66.8447 13.041C66.8447 13.8496 67.1143 14.5732 67.6533 15.2119C68.3213 16.0029 69.1826 16.3984 70.2373 16.3984C71.292 16.3984 72.1562 16.0059 72.8301 15.2207C73.3691 14.5938 73.6387 13.8672 73.6387 13.041ZM85.9785 9.61328H83.3945V19H80.2744V9.61328H77.7344V7.00293H85.9785V9.61328ZM94.1875 19H87.3584V7.00293H94.1875V9.61328H90.4785V11.6436H93.9854V14.2539H90.4785V16.3896H94.1875V19ZM107.564 19H104.233L103.46 16.9082H99.1533L98.3271 19H95.0312L99.6455 7.00293H103.047L107.564 19ZM102.616 14.5352L101.324 10.7119L100.015 14.5352H102.616ZM123.446 19H120.326L119.438 12.0918L116.538 19H115.299L112.53 12.0918L111.511 19H108.408L110.447 7.00293H113.523L115.958 13.4014L118.533 7.00293H121.636L123.446 19Z" fill="#FF6565"/>
<path d="M13.6004 0.854773L10.4883 3.9171C10.3055 4.09647 10.3723 4.40543 10.6124 4.4941L14.1112 5.78109C14.352 5.86975 14.6023 5.67742 14.5798 5.42234L14.1931 1.07371C14.1672 0.779068 13.8105 0.647436 13.6004 0.854773Z" fill="#FF6565"/>
<path d="M5.6123 1.21438L5.6314 5.39114C5.58843 5.64349 5.82237 5.85492 6.06927 5.78604L9.66016 4.78481C9.90706 4.71593 9.99777 4.41379 9.83067 4.22009L6.22068 1.04523C6.02766 0.821526 5.66209 0.923831 5.6123 1.21438Z" fill="#FF6565"/>
<path d="M10.0829 9.4715C12.5965 9.4715 14.6341 7.90716 14.6341 5.97745C14.6341 4.04774 12.5965 2.4834 10.0829 2.4834C7.56938 2.4834 5.53174 4.04774 5.53174 5.97745C5.53174 7.90716 7.56938 9.4715 10.0829 9.4715Z" fill="#FF6565"/>
<path d="M5.6123 1.21438L5.6314 5.39114C5.58843 5.64349 5.82237 5.85492 6.06927 5.78604L9.66016 4.78481C9.90706 4.71593 9.99777 4.41379 9.83067 4.22009L6.22068 1.04523C6.02766 0.821526 5.66209 0.923831 5.6123 1.21438Z" fill="#FF6565"/>
<path d="M13.6004 0.854773L10.4883 3.9171C10.3055 4.09647 10.3723 4.40543 10.6124 4.4941L14.1112 5.78109C14.352 5.86975 14.6023 5.67742 14.5798 5.42234L14.1931 1.07371C14.1672 0.779068 13.8105 0.647436 13.6004 0.854773Z" fill="#FF6565"/>
<path d="M12.1212 21.8841H2.93149C2.04348 21.8841 0.946777 21.125 0.946777 20.1893V17.1774C0.946777 10.4573 5.24563 7.77832 10.0826 7.77832H12.7589C13.2554 7.77832 13.6585 8.20254 13.6585 8.72635V20.265C13.6578 21.1591 12.9696 21.8841 12.1212 21.8841Z" fill="#FF6565"/>
<path d="M11.9002 21.8842H11.1841V12.9639L13.5262 8.2627C15.1699 10.5646 16.1322 14.9609 16.1322 17.4244C16.1315 19.8879 14.2369 21.8842 11.9002 21.8842Z" fill="#FF6565"/>
<path d="M6.88442 9.9509C7.85547 9.29025 8.34586 8.31843 7.97973 7.78027C7.6136 7.24211 6.5296 7.3414 5.55855 8.00204C4.58749 8.66269 4.0971 9.63451 4.46323 10.1727C4.82936 10.7108 5.91336 10.6115 6.88442 9.9509Z" fill="#FF6565"/>
<path d="M20.9596 12.8558C21.5371 12.8558 22.0052 12.3538 22.0052 11.7345C22.0052 11.1153 21.5371 10.6133 20.9596 10.6133C20.3822 10.6133 19.9141 11.1153 19.9141 11.7345C19.9141 12.3538 20.3822 12.8558 20.9596 12.8558Z" fill="#FF6565"/>
<path d="M19.8496 10.9263C19.8496 11.253 19.6027 11.5177 19.2979 11.5177C18.993 11.5177 18.7461 11.253 18.7461 10.9263C18.7461 10.5996 19.0762 9.93262 19.3804 9.93262C19.6859 9.93262 19.8496 10.5996 19.8496 10.9263Z" fill="#FF6565"/>
<path d="M20.8655 9.78202C20.8655 10.1196 20.6104 10.3931 20.2953 10.3931C19.9802 10.3931 19.7251 10.1196 19.7251 9.78202C19.7251 9.44442 20.0661 8.75488 20.3812 8.75488C20.6963 8.75488 20.8655 9.44442 20.8655 9.78202Z" fill="#FF6565"/>
<path d="M22.1921 9.78202C22.1921 10.1196 21.937 10.3931 21.6219 10.3931C21.3068 10.3931 21.0518 10.1196 21.0518 9.78202C21.0518 9.44442 21.3928 8.75488 21.7079 8.75488C22.023 8.75488 22.1921 9.44442 22.1921 9.78202Z" fill="#FF6565"/>
<path d="M23.2234 10.9295C23.2234 11.2671 22.9683 11.5406 22.6532 11.5406C22.3381 11.5406 22.083 11.2671 22.083 10.9295C22.083 10.5919 22.424 9.90234 22.7391 9.90234C23.0542 9.90234 23.2234 10.5919 23.2234 10.9295Z" fill="#FF6565"/>
<path d="M27.9183 6.84117C27.8017 6.6959 27.6257 6.61133 27.4395 6.61133H16.336C16.0482 6.61133 15.7986 6.81116 15.7365 7.09284L15.2632 9.23306C15.5871 9.91236 15.8531 10.6169 16.068 11.2771L16.8284 7.83967H26.6749L25.2713 14.1819H16.8073C16.8857 14.5979 16.9519 15.0099 17.0051 15.4095H25.7637C26.0516 15.4095 26.3012 15.2097 26.3633 14.928L28.0383 7.35815C28.0792 7.17673 28.0349 6.98645 27.9183 6.84117Z" fill="#FF6565"/>
<path d="M25.5327 14.7959H16.916C17.0701 15.7521 17.1553 16.6633 17.1553 17.4244C17.1553 18.1194 17.0292 18.7837 16.8027 19.3962H20.7319C20.9502 19.3962 21.1493 19.3109 21.2462 19.1766L26.047 15.3661C26.2359 15.1035 25.9583 14.7959 25.5327 14.7959Z" fill="#FF6565"/>
<path d="M3.86305 18.9884C3.80576 19.399 3.66594 19.83 3.55546 20.2399C3.44087 20.6478 3.29015 21.0843 3.32015 21.5044C3.4627 22.7641 4.5519 23.1645 5.69908 23.1569C6.34633 23.1597 7.00517 23.0471 7.63469 22.8971C8.48518 22.6836 9.32204 22.3856 10.1248 22.0248C11.8101 21.3475 12.8768 23.7162 11.2447 24.5265C11.1622 24.5633 11.079 24.5919 10.9937 24.611C9.88198 24.8716 8.77914 25.1198 7.63401 25.2508C5.75978 25.4677 3.48452 25.3851 2.16752 23.8103C1.69419 23.2633 1.43843 22.5745 1.26656 21.8993C0.923494 20.6798 0.761853 19.4133 1.23177 18.2231C1.24951 18.1706 1.27065 18.1351 1.28906 18.086C1.538 17.3754 2.31689 17.0009 3.02756 17.2499C3.73824 17.4988 4.11268 18.2777 3.86305 18.9884Z" fill="#FF6565"/>
</g>
<defs>
<clipPath id="clip0_193_514">
<rect width="124" height="26" fill="white"/>
</clipPath>
</defs>
</svg>
