<svg width="135" height="26" viewBox="0 0 135 26" fill="none" xmlns="http://www.w3.org/2000/svg">
<g clip-path="url(#clip0_182_489)">
<path d="M38.5869 19H35.4668V7.00293H38.5869V19ZM53.0889 19H49.9688L44.2295 11.6523V19H41.1094V7.00293H44.2295L49.9688 14.3418V7.00293H53.0889V19ZM62.7217 9.61328H60.1377V19H57.0176V9.61328H54.4775V7.00293H62.7217V9.61328ZM74.0771 19H70.1924L67.2217 14.3945V19H64.1016V7.00293H68.9531C70.3711 7.00293 71.4199 7.42773 72.0996 8.27734C72.6504 8.96289 72.9258 9.76855 72.9258 10.6943C72.9258 11.7549 72.6094 12.6016 71.9766 13.2344C71.5723 13.6387 71.0156 13.9199 70.3066 14.0781L74.0771 19ZM69.6826 10.8701C69.6826 10.4424 69.5273 10.082 69.2168 9.78906C68.9238 9.51367 68.4521 9.37598 67.8018 9.37598H67.2217V12.373H67.8018C68.458 12.373 68.9297 12.2354 69.2168 11.96C69.5273 11.6611 69.6826 11.2979 69.6826 10.8701ZM88.1309 13.041C88.1309 14.6699 87.5889 16.0996 86.5049 17.3301C85.2686 18.7305 83.5957 19.4307 81.4863 19.4307C79.3828 19.4307 77.7129 18.7305 76.4766 17.3301C75.3926 16.0996 74.8506 14.6699 74.8506 13.041C74.8506 12.2969 74.9971 11.5352 75.29 10.7559C75.583 9.9707 75.9756 9.2998 76.4678 8.74316C77.7041 7.34277 79.377 6.64258 81.4863 6.64258C83.5957 6.64258 85.2686 7.34277 86.5049 8.74316C87.5889 9.97363 88.1309 11.4062 88.1309 13.041ZM84.8877 13.041C84.8877 12.1973 84.6182 11.4678 84.0791 10.8525C83.3877 10.0674 82.5234 9.6748 81.4863 9.6748C80.7715 9.6748 80.124 9.87695 79.5439 10.2812C78.9639 10.6797 78.5508 11.2129 78.3047 11.8809C78.1641 12.2617 78.0938 12.6484 78.0938 13.041C78.0938 13.8496 78.3633 14.5732 78.9023 15.2119C79.5703 16.0029 80.4316 16.3984 81.4863 16.3984C82.541 16.3984 83.4053 16.0059 84.0791 15.2207C84.6182 14.5938 84.8877 13.8672 84.8877 13.041ZM100.638 12.9971C100.638 14.2451 100.26 15.4023 99.5039 16.4688C98.7539 17.5293 97.793 18.2646 96.6211 18.6748C96 18.8916 95.3672 19 94.7227 19H90.1172V7.00293H94.7227C95.8477 7.00293 96.8906 7.31641 97.8516 7.94336C98.7949 8.55273 99.5186 9.36719 100.022 10.3867C100.433 11.2305 100.638 12.1006 100.638 12.9971ZM97.3945 12.9971C97.3945 12.1709 97.1631 11.4502 96.7002 10.835C96.085 10.0205 95.168 9.61328 93.9492 9.61328H93.2373V16.3896H93.9492C95.1738 16.3896 96.0908 15.9824 96.7002 15.168C97.1631 14.5469 97.3945 13.8232 97.3945 12.9971ZM113.101 13.9199C113.101 14.6406 113.042 15.2559 112.925 15.7656C112.743 16.5566 112.31 17.2773 111.624 17.9277C110.651 18.8477 109.351 19.3076 107.722 19.3076C106.063 19.3076 104.769 18.8389 103.837 17.9014C103.345 17.4092 103.008 16.791 102.826 16.0469C102.697 15.5195 102.633 14.8105 102.633 13.9199V7.00293H105.753V13.498C105.753 14.0195 105.762 14.4092 105.779 14.667C105.838 15.4814 106.21 16.0498 106.896 16.3721C107.177 16.5068 107.487 16.5742 107.827 16.5742C108.589 16.5742 109.163 16.3076 109.55 15.7744C109.837 15.3818 109.98 14.623 109.98 13.498V7.00293H113.101V13.9199ZM124.263 18.7188C123.243 19.123 122.3 19.3252 121.433 19.3252C119.921 19.3252 118.567 18.8418 117.372 17.875C115.849 16.6387 115.087 15.0273 115.087 13.041C115.087 11.0488 115.849 9.43457 117.372 8.19824C118.567 7.23145 119.93 6.74805 121.459 6.74805C122.291 6.74805 123.226 6.9502 124.263 7.35449V11.0898C123.97 10.7324 123.671 10.4629 123.366 10.2812C122.81 9.94727 122.212 9.78027 121.573 9.78027C120.765 9.78027 120.062 10.0234 119.464 10.5098C118.708 11.125 118.33 11.9688 118.33 13.041C118.33 14.1074 118.708 14.9482 119.464 15.5635C120.062 16.0498 120.765 16.293 121.573 16.293C122.212 16.293 122.81 16.126 123.366 15.792C123.665 15.6162 123.964 15.3467 124.263 14.9834V18.7188ZM133.069 19H126.24V7.00293H133.069V9.61328H129.36V11.6436H132.867V14.2539H129.36V16.3896H133.069V19Z" fill="#FF6565"/>
<path d="M13.6004 0.854773L10.4883 3.9171C10.3055 4.09647 10.3723 4.40543 10.6124 4.4941L14.1112 5.78109C14.352 5.86975 14.6023 5.67742 14.5798 5.42234L14.1931 1.07371C14.1672 0.779068 13.8105 0.647436 13.6004 0.854773Z" fill="#FF6565"/>
<path d="M5.6123 1.21438L5.6314 5.39114C5.58843 5.64349 5.82237 5.85492 6.06927 5.78604L9.66016 4.78481C9.90706 4.71593 9.99777 4.41379 9.83067 4.22009L6.22068 1.04523C6.02766 0.821526 5.66209 0.923831 5.6123 1.21438Z" fill="#FF6565"/>
<path d="M10.0829 9.4715C12.5965 9.4715 14.6341 7.90716 14.6341 5.97745C14.6341 4.04774 12.5965 2.4834 10.0829 2.4834C7.56938 2.4834 5.53174 4.04774 5.53174 5.97745C5.53174 7.90716 7.56938 9.4715 10.0829 9.4715Z" fill="#FF6565"/>
<path d="M5.6123 1.21438L5.6314 5.39114C5.58843 5.64349 5.82237 5.85492 6.06927 5.78604L9.66016 4.78481C9.90706 4.71593 9.99777 4.41379 9.83067 4.22009L6.22068 1.04523C6.02766 0.821526 5.66209 0.923831 5.6123 1.21438Z" fill="#FF6565"/>
<path d="M13.6004 0.854773L10.4883 3.9171C10.3055 4.09647 10.3723 4.40543 10.6124 4.4941L14.1112 5.78109C14.352 5.86975 14.6023 5.67742 14.5798 5.42234L14.1931 1.07371C14.1672 0.779068 13.8105 0.647436 13.6004 0.854773Z" fill="#FF6565"/>
<path d="M12.1212 21.8841H2.93149C2.04348 21.8841 0.946777 21.125 0.946777 20.1893V17.1774C0.946777 10.4573 5.24563 7.77832 10.0826 7.77832H12.7589C13.2554 7.77832 13.6585 8.20254 13.6585 8.72635V20.265C13.6578 21.1591 12.9696 21.8841 12.1212 21.8841Z" fill="#FF6565"/>
<path d="M11.9002 21.8842H11.1841V12.9639L13.5262 8.2627C15.1699 10.5646 16.1322 14.9609 16.1322 17.4244C16.1315 19.8879 14.2369 21.8842 11.9002 21.8842Z" fill="#FF6565"/>
<path d="M6.88442 9.9509C7.85547 9.29025 8.34586 8.31843 7.97973 7.78027C7.6136 7.24211 6.5296 7.3414 5.55855 8.00204C4.58749 8.66269 4.0971 9.63451 4.46323 10.1727C4.82936 10.7108 5.91336 10.6115 6.88442 9.9509Z" fill="#FF6565"/>
<path d="M20.9596 12.8558C21.5371 12.8558 22.0052 12.3538 22.0052 11.7345C22.0052 11.1153 21.5371 10.6133 20.9596 10.6133C20.3822 10.6133 19.9141 11.1153 19.9141 11.7345C19.9141 12.3538 20.3822 12.8558 20.9596 12.8558Z" fill="#FF6565"/>
<path d="M19.8496 10.9263C19.8496 11.253 19.6027 11.5177 19.2979 11.5177C18.993 11.5177 18.7461 11.253 18.7461 10.9263C18.7461 10.5996 19.0762 9.93262 19.3804 9.93262C19.6859 9.93262 19.8496 10.5996 19.8496 10.9263Z" fill="#FF6565"/>
<path d="M20.8655 9.78202C20.8655 10.1196 20.6104 10.3931 20.2953 10.3931C19.9802 10.3931 19.7251 10.1196 19.7251 9.78202C19.7251 9.44442 20.0661 8.75488 20.3812 8.75488C20.6963 8.75488 20.8655 9.44442 20.8655 9.78202Z" fill="#FF6565"/>
<path d="M22.1921 9.78202C22.1921 10.1196 21.937 10.3931 21.6219 10.3931C21.3068 10.3931 21.0518 10.1196 21.0518 9.78202C21.0518 9.44442 21.3928 8.75488 21.7079 8.75488C22.023 8.75488 22.1921 9.44442 22.1921 9.78202Z" fill="#FF6565"/>
<path d="M23.2234 10.9295C23.2234 11.2671 22.9683 11.5406 22.6532 11.5406C22.3381 11.5406 22.083 11.2671 22.083 10.9295C22.083 10.5919 22.424 9.90234 22.7391 9.90234C23.0542 9.90234 23.2234 10.5919 23.2234 10.9295Z" fill="#FF6565"/>
<path d="M27.9183 6.84117C27.8017 6.6959 27.6257 6.61133 27.4395 6.61133H16.336C16.0482 6.61133 15.7986 6.81116 15.7365 7.09284L15.2632 9.23306C15.5871 9.91236 15.8531 10.6169 16.068 11.2771L16.8284 7.83967H26.6749L25.2713 14.1819H16.8073C16.8857 14.5979 16.9519 15.0099 17.0051 15.4095H25.7637C26.0516 15.4095 26.3012 15.2097 26.3633 14.928L28.0383 7.35815C28.0792 7.17673 28.0349 6.98645 27.9183 6.84117Z" fill="#FF6565"/>
<path d="M25.5327 14.7959H16.916C17.0701 15.7521 17.1553 16.6633 17.1553 17.4244C17.1553 18.1194 17.0292 18.7837 16.8027 19.3962H20.7319C20.9502 19.3962 21.1493 19.3109 21.2462 19.1766L26.047 15.3661C26.2359 15.1035 25.9583 14.7959 25.5327 14.7959Z" fill="#FF6565"/>
<path d="M3.86305 18.9884C3.80576 19.399 3.66594 19.83 3.55546 20.2399C3.44087 20.6478 3.29015 21.0843 3.32015 21.5044C3.4627 22.7641 4.5519 23.1645 5.69908 23.1569C6.34633 23.1597 7.00517 23.0471 7.63469 22.8971C8.48518 22.6836 9.32204 22.3856 10.1248 22.0248C11.8101 21.3475 12.8768 23.7162 11.2447 24.5265C11.1622 24.5633 11.079 24.5919 10.9937 24.611C9.88198 24.8716 8.77914 25.1198 7.63401 25.2508C5.75978 25.4677 3.48452 25.3851 2.16752 23.8103C1.69419 23.2633 1.43843 22.5745 1.26656 21.8993C0.923494 20.6798 0.761853 19.4133 1.23177 18.2231C1.24951 18.1706 1.27065 18.1351 1.28906 18.086C1.538 17.3754 2.31689 17.0009 3.02756 17.2499C3.73824 17.4988 4.11268 18.2777 3.86305 18.9884Z" fill="#FF6565"/>
</g>
<defs>
<clipPath id="clip0_182_489">
<rect width="135" height="26" fill="white"/>
</clipPath>
</defs>
</svg>
